PathFileType	4	(x/y/z)	S05_SL_Cal_T01
DataRate	CameraRate	NumFrames	NumMarkers	Units	OrigDataRate	OrigDataStartFrame	OrigNumFrames
240	240	8	50	mm	240	1801	2400
Frame#	Time	Sternum			R.Acromium			L.Acromium			Top.Head			R.ASIS			L.ASIS			R.PSIS			L.PSIS			R.Great.Tro			L.Great.Tro			R.Iliac.Crest			L.Iliac.Crest			V.Sacral			R.Thigh.Upper.Post			R.Thigh.Lower.Ant			R.Thigh.Lower.Post			R.Thigh.Upper.Ant			R.Knee.Lat			R.Knee.Med			R.Shank.Upper.Post			R.Shank.Lower.Ant			R.Shank.Lower.Post			R.Shank.Upper.Ant			R.Ankle.Lat			R.Ankle.Med			R.Heel.Upper			R.Heel.Med			R.Heel.Lat			R.Toe.Lat			R.Toe.Med			R.Toe.Tip			L.Thigh.Upper.Post			L.Thigh.Lower.Ant			L.Thigh.Lower.Post			L.Thigh.Upper.Ant			L.Knee.Lat			L.Shank.Upper.Post			L.Shank.Lower.Ant			L.Shank.Lower.Post			L.Shank.Upper.Ant			L.Ankle.Lat			L.Ankle.Med			L.Heel.Upper			L.Heel.Med			L.Heel.Lat			L.Toe.Lat			L.Toe.Med			L.Toe.Tip			Cervical.Spine			Back			
		X1	Y1	Z1	X2	Y2	Z2	X3	Y3	Z3	X4	Y4	Z4	X5	Y5	Z5	X6	Y6	Z6	X7	Y7	Z7	X8	Y8	Z8	X9	Y9	Z9	X10	Y10	Z10	X11	Y11	Z11	X12	Y12	Z12	X13	Y13	Z13	X14	Y14	Z14	X15	Y15	Z15	X16	Y16	Z16	X17	Y17	Z17	X18	Y18	Z18	X19	Y19	Z19	X20	Y20	Z20	X21	Y21	Z21	X22	Y22	Z22	X23	Y23	Z23	X24	Y24	Z24	X25	Y25	Z25	X26	Y26	Z26	X27	Y27	Z27	X28	Y28	Z28	X29	Y29	Z29	X30	Y30	Z30	X31	Y31	Z31	X32	Y32	Z32	X33	Y33	Z33	X34	Y34	Z34	X35	Y35	Z35	X36	Y36	Z36	X37	Y37	Z37	X38	Y38	Z38	X39	Y39	Z39	X40	Y40	Z40	X41	Y41	Z41	X42	Y42	Z42	X43	Y43	Z43	X44	Y44	Z44	X45	Y45	Z45	X46	Y46	Z46	X47	Y47	Z47	X48	Y48	Z48	X49	Y49	Z49	X50	Y50	Z50	

1801	7.5	539.1	1285.7	337.53	425.43	1532.7	496.93	412.09	1545.3	157.4	409.05	1850.6	336.16	487.65	1016.9	465.35	501.09	1024.1	214.33	291.79	1050.3	370.74	297.78	1052.9	279.53	396.15	942.14	521.53	405.48	950.76	137.33	402.01	1107	500	414.57	1106.7	166.18	279.51	1014.6	335.59	426	718.98	529.05	468.63	638.29	481.94	402.22	632.82	512.5	488.77	724.52	498.86	385.97	537.69	494.3	380.7	513.32	364.92	297.89	302.98	511.07	360.17	236.57	512.36	295.01	226.46	500.07	362.46	314.48	520.36	347.08	125.72	504.75	348.93	140.23	417.14	272.57	75.238	456.59	280.71	41.787	429.63	283.23	48.868	494.55	452.1	37.34	534.32	478.74	40.409	412.36	546.1	56.999	452.72	385.49	716.23	125.67	455.77	633.4	146.86	384.92	620.9	137.42	463.42	723.89	135.02	386.67	528.52	139.51	315.17	333.61	121.04	380.53	273.36	123.41	310.72	260.9	134.27	380.82	344.22	116.49	340.22	117.07	133.24	368.38	128.28	221.4	278.5	68.737	178.51	289.12	44.029	210.95	283.5	41.574	149.86	468.19	39.535	103.84	486.1	50.385	224.02	553.07	58.974	171.74	364.57	1580.2	334.35	276.66	1295.6	331.74
1802	7.5042	539.11	1285.7	337.52	425.44	1532.7	496.93	412.09	1545.3	157.41	409.05	1850.6	336.16	487.66	1016.8	465.34	501.1	1024.1	214.32	291.79	1050.3	370.74	297.78	1052.9	279.53	396.16	942.14	521.53	405.49	950.76	137.33	402.02	1107	499.99	414.58	1106.7	166.18	279.52	1014.6	335.59	426.01	718.98	529.05	468.63	638.29	481.94	402.23	632.81	512.5	488.78	724.52	498.86	385.98	537.69	494.29	380.71	513.32	364.92	297.89	302.98	511.07	360.17	236.57	512.36	295.01	226.46	500.07	362.46	314.48	520.35	347.08	125.72	504.75	348.93	140.23	417.14	272.57	75.237	456.59	280.71	41.786	429.63	283.23	48.868	494.55	452.1	37.34	534.32	478.74	40.408	412.36	546.1	56.998	452.72	385.49	716.23	125.67	455.77	633.4	146.85	384.92	620.9	137.42	463.42	723.89	135.02	386.67	528.51	139.51	315.17	333.61	121.04	380.53	273.36	123.41	310.72	260.9	134.27	380.81	344.22	116.49	340.22	117.07	133.24	368.38	128.28	221.4	278.5	68.737	178.51	289.12	44.028	210.95	283.5	41.574	149.86	468.19	39.535	103.84	486.1	50.384	224.02	553.07	58.974	171.74	364.58	1580.2	334.36	276.67	1295.6	331.74
1803	7.5083	539.12	1285.7	337.51	425.44	1532.7	496.94	412.1	1545.3	157.41	409.05	1850.6	336.15	487.68	1016.8	465.34	501.11	1024.1	214.32	291.8	1050.3	370.73	297.79	1052.9	279.52	396.17	942.13	521.53	405.49	950.76	137.33	402.03	1107	499.99	414.58	1106.7	166.18	279.53	1014.6	335.59	426.01	718.97	529.04	468.64	638.28	481.94	402.23	632.81	512.5	488.79	724.52	498.86	385.98	537.69	494.29	380.71	513.32	364.92	297.89	302.98	511.07	360.17	236.57	512.35	295.01	226.46	500.06	362.46	314.48	520.35	347.08	125.72	504.75	348.93	140.23	417.14	272.57	75.236	456.59	280.71	41.786	429.63	283.23	48.869	494.55	452.1	37.341	534.32	478.74	40.408	412.36	546.1	56.998	452.72	385.49	716.23	125.67	455.77	633.4	146.85	384.91	620.9	137.42	463.42	723.89	135.01	386.67	528.51	139.51	315.16	333.61	121.04	380.53	273.36	123.41	310.72	260.9	134.27	380.81	344.22	116.48	340.22	117.07	133.24	368.38	128.28	221.4	278.5	68.737	178.51	289.12	44.028	210.95	283.5	41.574	149.86	468.19	39.535	103.84	486.1	50.384	224.02	553.07	58.974	171.74	364.58	1580.2	334.37	276.68	1295.6	331.74
1804	7.5125	539.13	1285.7	337.51	425.45	1532.7	496.95	412.1	1545.3	157.42	409.05	1850.6	336.15	487.69	1016.8	465.34	501.12	1024.1	214.31	291.81	1050.3	370.73	297.8	1052.9	279.52	396.17	942.13	521.52	405.5	950.76	137.32	402.03	1107	499.99	414.59	1106.7	166.17	279.54	1014.6	335.59	426.02	718.97	529.04	468.64	638.28	481.94	402.24	632.81	512.49	488.79	724.52	498.85	385.98	537.69	494.29	380.72	513.31	364.91	297.89	302.98	511.07	360.17	236.57	512.35	295.01	226.46	500.06	362.46	314.48	520.35	347.08	125.72	504.75	348.93	140.23	417.14	272.57	75.234	456.59	280.71	41.786	429.62	283.23	48.869	494.55	452.1	37.342	534.32	478.74	40.407	412.36	546.1	56.997	452.72	385.49	716.23	125.67	455.77	633.39	146.85	384.91	620.9	137.41	463.42	723.88	135.01	386.67	528.51	139.51	315.16	333.61	121.04	380.53	273.36	123.41	310.72	260.9	134.26	380.81	344.22	116.48	340.22	117.07	133.24	368.38	128.28	221.4	278.5	68.737	178.51	289.12	44.028	210.95	283.5	41.574	149.86	468.19	39.536	103.84	486.1	50.384	224.02	553.07	58.975	171.74	364.59	1580.2	334.38	276.68	1295.6	331.74
1805	7.5167	539.13	1285.7	337.51	425.45	1532.7	496.95	412.1	1545.3	157.43	409.06	1850.6	336.14	487.7	1016.8	465.33	501.13	1024.1	214.31	291.81	1050.3	370.72	297.8	1052.9	279.51	396.18	942.12	521.52	405.5	950.75	137.32	402.04	1107	499.99	414.59	1106.7	166.17	279.54	1014.6	335.58	426.02	718.96	529.04	468.64	638.27	481.93	402.24	632.81	512.49	488.79	724.51	498.85	385.98	537.69	494.28	380.72	513.31	364.91	297.89	302.98	511.06	360.17	236.57	512.35	295.01	226.46	500.06	362.46	314.48	520.34	347.08	125.72	504.74	348.93	140.23	417.14	272.57	75.233	456.59	280.71	41.785	429.62	283.23	48.87	494.55	452.1	37.343	534.32	478.74	40.407	412.36	546.1	56.997	452.72	385.49	716.22	125.67	455.77	633.39	146.85	384.91	620.9	137.41	463.42	723.88	135.01	386.67	528.51	139.51	315.16	333.61	121.04	380.53	273.36	123.41	310.72	260.9	134.26	380.81	344.22	116.48	340.22	117.07	133.24	368.38	128.28	221.4	278.5	68.737	178.51	289.12	44.028	210.95	283.5	41.574	149.86	468.19	39.536	103.84	486.1	50.384	224.02	553.07	58.975	171.74	364.6	1580.2	334.39	276.69	1295.6	331.74
1806	7.5208	539.14	1285.7	337.5	425.46	1532.7	496.96	412.11	1545.3	157.43	409.06	1850.6	336.14	487.71	1016.8	465.33	501.14	1024.1	214.31	291.82	1050.3	370.72	297.81	1052.9	279.51	396.19	942.12	521.52	405.51	950.75	137.32	402.04	1107	499.98	414.6	1106.6	166.17	279.55	1014.6	335.58	426.03	718.96	529.04	468.65	638.27	481.93	402.24	632.81	512.49	488.8	724.51	498.85	385.99	537.69	494.28	380.73	513.31	364.91	297.89	302.98	511.06	360.17	236.57	512.35	295.01	226.46	500.06	362.46	314.48	520.34	347.08	125.72	504.74	348.93	140.23	417.13	272.57	75.231	456.59	280.71	41.785	429.62	283.23	48.87	494.55	452.1	37.344	534.32	478.74	40.406	412.36	546.1	56.997	452.72	385.49	716.22	125.67	455.77	633.39	146.85	384.91	620.9	137.41	463.42	723.88	135.01	386.67	528.51	139.51	315.16	333.61	121.04	380.53	273.36	123.41	310.72	260.9	134.26	380.81	344.22	116.48	340.22	117.07	133.24	368.39	128.28	221.4	278.5	68.737	178.5	289.12	44.028	210.95	283.5	41.574	149.86	468.19	39.536	103.84	486.1	50.383	224.02	553.07	58.975	171.74	364.61	1580.2	334.4	276.7	1295.6	331.74
1807	7.525	539.15	1285.7	337.5	425.46	1532.7	496.97	412.11	1545.3	157.44	409.06	1850.6	336.13	487.72	1016.8	465.32	501.15	1024.1	214.3	291.83	1050.3	370.71	297.82	1052.9	279.5	396.19	942.11	521.51	405.52	950.75	137.32	402.05	1107	499.98	414.61	1106.6	166.16	279.56	1014.6	335.57	426.03	718.96	529.04	468.65	638.27	481.93	402.25	632.81	512.49	488.8	724.51	498.85	385.99	537.69	494.28	380.73	513.31	364.9	297.89	302.98	511.06	360.17	236.57	512.34	295.01	226.46	500.06	362.46	314.48	520.34	347.08	125.72	504.74	348.93	140.23	417.13	272.57	75.23	456.59	280.71	41.785	429.62	283.23	48.87	494.55	452.1	37.345	534.32	478.74	40.406	412.35	546.1	56.997	452.72	385.49	716.22	125.67	455.77	633.39	146.85	384.91	620.9	137.41	463.42	723.88	135.01	386.67	528.51	139.51	315.16	333.61	121.04	380.53	273.35	123.41	310.72	260.9	134.26	380.81	344.21	116.48	340.22	117.07	133.24	368.39	128.28	221.4	278.5	68.737	178.5	289.12	44.027	210.95	283.5	41.573	149.86	468.19	39.537	103.84	486.1	50.383	224.02	553.07	58.975	171.74	364.62	1580.2	334.41	276.71	1295.6	331.74
1808	7.5292	539.16	1285.7	337.5	425.47	1532.7	496.97	412.11	1545.3	157.45	409.06	1850.7	336.13	487.73	1016.8	465.32	501.16	1024.1	214.3	291.83	1050.3	370.71	297.82	1052.9	279.49	396.2	942.11	521.51	405.53	950.74	137.32	402.05	1107	499.98	414.62	1106.6	166.16	279.57	1014.6	335.57	426.03	718.96	529.03	468.65	638.26	481.93	402.25	632.8	512.48	488.8	724.51	498.85	385.99	537.69	494.28	380.74	513.31	364.9	297.89	302.98	511.05	360.17	236.57	512.34	295.01	226.46	500.05	362.46	314.48	520.33	347.08	125.72	504.74	348.93	140.23	417.13	272.57	75.228	456.59	280.71	41.784	429.62	283.23	48.87	494.55	452.1	37.346	534.32	478.74	40.406	412.35	546.1	56.998	452.72	385.49	716.22	125.67	455.78	633.38	146.85	384.92	620.9	137.41	463.43	723.87	135	386.67	528.51	139.51	315.16	333.61	121.04	380.53	273.35	123.41	310.72	260.9	134.26	380.81	344.21	116.48	340.22	117.07	133.24	368.39	128.28	221.4	278.5	68.737	178.5	289.12	44.027	210.95	283.5	41.573	149.86	468.19	39.537	103.84	486.1	50.383	224.02	553.07	58.976	171.74	364.63	1580.2	334.43	276.72	1295.6	331.74
